<svg width="434" height="347" viewBox="0 0 434 347" fill="none" xmlns="http://www.w3.org/2000/svg">
<g clip-path="url(#clip0_137_124)">
<path d="M289.631 76.2958C289.567 76.3066 289.472 76.3227 289.357 76.3418C287.101 76.7152 273.464 78.8193 259.714 73.5817C253.89 71.3628 255.876 70.8098 242.904 63.0958C227.695 54.0519 223.792 54.1151 222.659 49.898C220.398 41.4774 232.474 28.2399 240.466 29.1114C242.571 29.3409 244.824 30.5955 248.33 29.7448C249.1 29.5579 252.471 28.7398 254.115 25.9492C255.581 23.4598 254.339 21.6641 254.929 19.6225C256.476 14.2634 269.377 11.589 280.688 13.4786C287.194 14.5655 292.254 17.5327 302.108 23.4226C319.26 33.6743 327.836 38.8002 329.764 46.6535C331.59 54.0971 327.206 57.3044 330.395 65.2725C333.364 72.6918 338.08 72.1963 339.703 78.1981C342.315 87.8563 332.622 98.4562 328.584 102.872C324.157 107.713 319.923 110.37 314.302 113.897C307.247 118.325 303.72 120.538 299.479 120.313C291.79 119.905 268.941 121.295 268.643 114.932C268.532 112.547 240.82 114.5 254.465 88.8265C256.139 85.6775 288.926 89.0411 289.359 87.2321" fill="#2F2E41"/>
<path d="M302.901 92.7242L326.469 127.878L258.818 141.559L263.127 97.5477L302.901 92.7242Z" fill="#FFB6B6"/>
<path opacity="0.1" d="M302.901 92.7242L326.469 127.878L258.818 141.559L263.127 97.5477L302.901 92.7242Z" fill="black"/>
<path d="M253.751 118.758L326.716 115.718L359.145 133.452L357.625 247.461L391.575 311.812L220.309 279.383L233.483 230.739L227.402 128.385L253.751 118.758Z" fill="#3F3D56"/>
<path d="M1.96504 340.24C-0.364434 336.568 -0.639539 332.031 1.22928 328.104L29.0002 269.754C31.0728 265.399 35.5283 262.585 40.3511 262.585H391.119C395.808 262.585 400.073 265.164 402.251 269.316L432.018 326.058C434.075 329.981 433.94 334.587 431.655 338.382C429.371 342.176 425.364 344.452 420.935 344.469L12.6297 346.077H12.5785C8.25012 346.077 4.28506 343.897 1.96504 340.24H1.96504Z" fill="white"/>
<path d="M1.96504 340.24C-0.364434 336.568 -0.639539 332.031 1.22928 328.104L29.0002 269.754C31.0728 265.399 35.5283 262.585 40.3511 262.585H391.119C395.808 262.585 400.073 265.164 402.251 269.316L432.018 326.058C434.075 329.981 433.94 334.587 431.655 338.382C429.371 342.176 425.364 344.452 420.935 344.469L12.6297 346.077H12.5785C8.25012 346.077 4.28506 343.897 1.96504 340.24H1.96504ZM40.3511 263.905C36.0345 263.905 32.0467 266.423 30.1916 270.321L2.42075 328.671C0.748009 332.185 0.99412 336.246 3.0792 339.533C5.1559 342.807 8.70433 344.757 12.5788 344.757H12.6245L420.93 343.15C424.894 343.134 428.481 341.097 430.525 337.701C432.569 334.305 432.691 330.182 430.849 326.672L401.083 269.929C399.133 266.213 395.316 263.905 391.119 263.905H40.3511H40.3511Z" fill="#3F3D56"/>
<path d="M358.462 323.77L213.71 313.818C211.572 313.671 209.868 312.23 209.367 310.147C208.867 308.065 209.73 306.007 211.567 304.905L243.576 285.699C244.389 285.211 245.321 284.974 246.266 285.019L371.476 290.711C373.131 290.786 374.61 291.69 375.431 293.129C376.252 294.568 376.278 296.301 375.501 297.764L363.035 321.23C362.198 322.805 360.557 323.781 358.791 323.781C358.682 323.781 358.572 323.777 358.462 323.77V323.77Z" fill="#3F3D56"/>
<path d="M212.455 308.012L356.612 317.892L368.013 293.317L244.404 288.47L212.455 308.012Z" fill="white"/>
<path d="M283.393 104.566C307.317 104.566 326.712 85.1714 326.712 61.2469C326.712 37.3224 307.317 17.9277 283.393 17.9277C259.468 17.9277 240.074 37.3224 240.074 61.2469C240.074 85.1714 259.468 104.566 283.393 104.566Z" fill="#FFB6B6"/>
<path d="M297.346 64.0501C297.282 64.061 297.187 64.0771 297.072 64.0962C294.816 64.4696 281.179 66.5737 267.429 61.3361C261.604 59.1172 263.591 58.5642 250.619 50.8501C235.41 41.8063 231.507 41.8695 230.374 37.6524C228.113 29.2318 240.188 15.9943 248.181 16.8658C250.286 17.0953 252.539 18.3499 256.045 17.4992C256.815 17.3123 260.186 16.4942 261.829 13.7036C263.296 11.2142 262.054 9.41849 262.643 7.37685C264.191 2.01783 277.092 -0.656612 288.403 1.23302C294.909 2.31988 299.969 5.28705 309.823 11.177C326.975 21.4287 335.551 26.5546 337.478 34.4079C339.305 41.8515 334.921 45.0588 338.109 53.0269C341.079 60.4462 345.795 59.9506 347.418 65.9525C350.029 75.6107 340.336 86.2106 336.299 90.6262C331.872 95.4674 327.638 98.1244 322.017 101.652C314.962 106.079 311.435 108.293 307.194 108.068C299.505 107.659 291.857 100.691 291.559 94.328C291.447 91.9434 292.442 91.2282 294.904 83.0304C295.929 79.615 296.641 76.7955 297.074 74.9865" fill="#2F2E41"/>
<path d="M327.037 296.144C329.823 296.254 331.944 298.751 332.098 301.456C332.258 304.264 330.305 306.851 327.96 308.188C325.212 309.754 321.782 310.005 318.688 309.736C315.905 309.493 312.877 308.628 311.086 306.33C309.58 304.396 309.025 301.475 310.307 299.28C311.577 297.103 314.28 296.503 316.54 297.376C318.932 298.3 320.436 300.476 320.451 303.047C320.468 305.896 318.822 308.53 316.513 310.105C314.022 311.805 310.886 312.351 307.921 312.345C304.69 312.337 301.474 311.659 298.501 310.4C295.717 309.22 292.935 307.519 290.944 305.208C289.077 303.04 287.959 300.034 288.996 297.223C289.846 294.918 291.993 293.504 294.451 293.7C296.703 293.878 298.979 295.185 299.979 297.265C301.106 299.611 300.6 302.427 299.165 304.525C297.509 306.948 294.89 308.309 291.982 308.506C288.888 308.715 285.823 307.616 283.277 305.916C280.92 304.342 278.848 302.327 276.317 301.017C275.099 300.387 273.774 299.986 272.395 299.988C270.639 299.99 268.951 300.567 267.243 300.901C265.796 301.185 264.304 301.35 262.876 300.888C261.654 300.492 260.51 299.766 259.74 298.726C259.012 297.742 258.756 296.509 259.169 295.341C259.492 294.425 260.962 294.819 260.635 295.745C259.88 297.881 262.468 299.451 264.28 299.647C265.654 299.796 267.072 299.399 268.398 299.089C269.779 298.766 271.192 298.435 272.621 298.47C277.683 298.595 281.029 302.921 285.109 305.269C289.4 307.737 295.683 307.909 298.311 303.004C299.265 301.223 299.462 298.856 298.151 297.191C297.059 295.805 295.119 294.976 293.36 295.244C291.152 295.582 290.052 297.685 290.132 299.776C290.23 302.335 292.014 304.414 293.916 305.947C298.151 309.359 303.766 311.097 309.182 310.792C311.723 310.648 314.424 309.987 316.398 308.295C318.103 306.833 319.267 304.456 318.858 302.179C318.503 300.208 316.85 298.713 314.853 298.515C312.81 298.312 311.214 299.762 311.123 301.803C311.02 304.098 312.384 306.014 314.36 307.059C316.598 308.244 319.311 308.39 321.792 308.261C324.426 308.124 327.17 307.43 329.013 305.425C330.586 303.714 331.182 301.176 329.733 299.196C329.093 298.322 328.132 297.707 327.037 297.664C326.062 297.625 326.057 296.105 327.037 296.144V296.144Z" fill="#00BFA6"/>
<path d="M257.756 294.515L258.531 289.723L301.537 207.526C302.25 206.164 303.937 205.636 305.299 206.348C306.66 207.061 307.188 208.748 306.476 210.11L263.489 292.27L259.975 295.676C259.559 296.076 258.959 296.162 258.447 295.895C257.936 295.627 257.665 295.085 257.756 294.515H257.756Z" fill="#3F3D56"/>
<path d="M287.07 242.22C291.922 243.133 296.485 245.195 300.376 248.234L300.595 248.281L300.64 248.063L347.511 255.404L344.115 193.061L379.637 173.605L371.241 278.986C369.423 285.716 362.439 289.647 355.742 287.708L296.077 270.546L296.226 269.812L296.018 269.756C291.249 271.042 286.242 271.167 281.416 270.121C269.307 267.671 260.756 259.437 262.317 251.731C263.878 244.025 274.958 239.767 287.07 242.22V242.22Z" fill="#FFB6B6"/>
<path d="M319.116 144.6L359.145 133.452C359.145 133.452 380.174 148.907 382.707 165.628C383.008 167.617 383.844 260.253 382.96 262.662C376.413 280.507 340.397 252.021 340.397 252.021L319.116 144.6Z" fill="#3F3D56"/>
<path d="M145.486 311.097L141.336 307.54H141.336C140.718 307.01 139.967 306.659 139.164 306.525L46.6987 291.114C44.5883 290.762 43.0293 289.238 42.63 287.136C42.2309 285.034 43.1226 283.045 44.9574 281.944L77.9446 262.151C79.0471 261.49 80.3446 261.282 81.5997 261.565L198.838 288.052C201.117 288.567 202.638 290.409 202.713 292.744C202.787 295.08 201.387 297.015 199.145 297.675L150.126 312.092C149.661 312.229 149.187 312.296 148.716 312.296C147.546 312.296 146.401 311.882 145.486 311.097V311.097Z" fill="#3F3D56"/>
<path d="M100.957 196.156C105.54 197.992 109.617 200.898 112.847 204.633L113.053 204.721L113.138 204.516L157.701 220.792L205.282 143.752L231.586 160.055L176.418 248.522C173.331 254.773 165.718 257.277 159.523 254.079L104.31 225.691L104.598 225L104.404 224.904C99.477 225.243 94.5404 224.396 90.0076 222.435C78.6025 217.687 71.8077 207.953 74.8307 200.696C77.8537 193.438 89.5484 191.405 100.957 196.157L100.957 196.156Z" fill="#FFB6B6"/>
<path d="M256.325 157.66L235.279 126.189C235.279 126.189 210.235 131.146 199.919 144.547C198.63 146.222 154.334 210.464 154.049 213.268C152.051 232.893 202.961 242.088 202.961 242.088L256.325 157.66Z" fill="#3F3D56"/>
<path d="M143.196 312.042L37.2024 297.393C33.6549 296.903 30.727 294.361 29.7428 290.917L5.39903 205.714C4.57415 202.826 5.18996 199.836 7.08862 197.509C8.98727 195.182 11.7924 193.98 14.7879 194.209L121.576 202.39C125.439 202.686 128.682 205.407 129.647 209.159L153.195 300.831C153.947 303.757 153.195 306.849 151.185 309.103C149.454 311.044 146.999 312.128 144.44 312.128C144.027 312.128 143.611 312.1 143.196 312.042V312.042Z" fill="#3F3D56"/>
<path d="M119.57 137.522C120.189 138.204 122.438 137.51 126.909 136.093C130.308 135.017 130.831 134.625 131.155 134.344C132.291 133.356 132.589 132.318 133.715 127.73C135.736 119.496 135.798 118.678 136.836 116.931C137.193 116.329 138.096 114.894 137.876 114.716C137.649 114.533 136.673 116.029 134.867 116.594C133.108 117.144 132.316 116.262 130.814 116.487C128.872 116.777 127.718 118.622 125.907 121.607C124.303 124.251 124.101 125.314 121.853 130.567C121.216 132.055 120.703 133.207 120.309 134.117C115.895 138.237 111.517 142.412 107.178 146.623C107.262 146.495 107.341 146.374 107.409 146.269C109.331 143.319 109.592 141.737 109.564 140.552C109.519 138.631 108.602 137.169 106.769 134.322C104.974 131.532 103.272 129.691 101.223 127.495C98.5355 124.615 97.1921 123.176 96.6571 123.27C92.8356 123.947 91.8137 149.967 96.6218 154.621C95.947 155.103 95.3881 155.608 94.9839 156.105C90.8681 151.535 83.8174 146.429 76.0068 145.801C71.1916 145.413 68.534 146.924 67.7076 147.443C63.8883 149.842 61.6173 154.644 62.7579 155.998C63.8214 157.262 66.893 154.39 72.9131 154.548C77.1137 154.658 80.3949 156.182 82.3429 157.087C86.4293 158.985 87.924 160.851 90.9369 162.129C89.5245 163.293 88.4054 164.745 87.7028 166.1C87.4593 166.351 87.2169 166.603 86.9737 166.854C83.8649 165.103 80.3641 163.817 76.6946 163.522C71.8793 163.134 69.2217 164.646 68.3953 165.165C65.8212 166.781 63.9559 169.487 63.3588 171.495C62.9687 171.574 62.6076 171.663 62.277 171.76C61.1101 169.123 57.6375 166.342 54.4086 164.94C48.8506 162.528 41.6308 163.167 40.8583 165.461C40.8337 165.534 40.8275 165.606 40.8166 165.679C41.4258 160.763 42.2531 155.881 43.2866 151.036C43.3216 151.174 43.3657 151.314 43.4243 151.461C44.7964 154.907 48.5039 158.215 53.5575 159.931C57.524 161.277 59.1853 160.579 59.6073 160.384C60.0105 160.198 61.7518 159.451 62.1784 157.964C62.9694 155.209 58.1254 147.066 55.07 149.797C45.253 158.573 43.9058 151.467 43.4549 150.271C44.2895 146.44 45.2502 142.63 46.3277 138.843C46.3463 138.866 46.3624 138.889 46.3817 138.912C48.5265 141.513 52.6541 143.346 57.5047 143.427C61.3116 143.49 62.5555 142.425 62.8666 142.139C63.1636 141.866 64.4631 140.735 64.4194 139.33C64.3385 136.726 59.7053 134.605 55.9983 134.237C52.5822 133.898 48.9038 134.944 47.0791 136.268C47.9275 133.432 48.8401 130.608 49.8135 127.796C52.3066 128.814 55.8381 128.677 59.3073 127.127C62.1683 125.848 62.7246 124.62 62.8568 124.298C62.9832 123.991 63.5583 122.695 63.0363 121.663C62.0687 119.749 57.8749 119.781 54.9825 120.799C53.7912 121.217 52.6591 121.862 51.6887 122.591C53.4138 117.982 55.2943 113.406 57.3166 108.864L55.2898 108.357C52.7063 114.16 50.4539 120.037 48.5181 125.98C48.2774 124.237 47.6742 122.381 46.88 120.872C44.5446 116.437 39.5565 113.109 37.8696 114.189C37.5322 114.405 37.3901 114.756 37.2617 115.175C36.2277 118.545 37.0064 123.201 39.7297 127.48C41.867 130.838 43.5131 131.309 43.9419 131.416C44.304 131.506 45.7018 131.892 46.8506 131.395C46.078 134.042 45.3636 136.701 44.7121 139.372C43.9282 137.426 42.3833 135.352 40.7495 133.918C36.982 130.611 31.1335 129.288 29.9445 130.9C29.7067 131.222 29.6999 131.601 29.7297 132.038C29.9695 135.555 32.3624 139.625 36.4359 142.646C39.6331 145.018 41.3389 144.869 41.7774 144.815C42.0356 144.784 42.8157 144.706 43.5678 144.366C42.8696 147.611 42.2594 150.872 41.7319 154.147C40.6769 150.483 37.0933 145.913 33.7111 147.367C27.7095 149.947 20.6546 145.984 19.8781 147.717C19.676 148.168 19.8433 148.633 20.0366 149.138C21.5915 153.198 25.8859 157.131 31.7824 159.22C36.4103 160.86 38.3682 160.067 38.8657 159.845C39.1955 159.698 40.2838 159.243 41.0944 158.4C40.5116 162.608 40.0649 166.837 39.7504 171.085C38.4991 168.352 34.9745 165.474 31.675 163.99C25.8872 161.387 18.3174 161.957 17.4767 164.349C17.3085 164.828 17.4411 165.289 17.6394 165.807C19.2355 169.974 23.6431 174.012 29.6953 176.156C34.4454 177.839 36.4549 177.025 36.9657 176.797C37.3388 176.631 38.6567 176.08 39.497 175.035C39.3894 176.998 39.3062 178.965 39.2537 180.936C39.2387 181.497 39.2299 182.059 39.219 182.62C39.1509 182.73 39.0914 182.843 39.0518 182.961C38.8896 183.442 38.9999 183.906 39.1903 184.412C39.1861 184.768 39.1839 185.125 39.1816 185.481C38.1226 184.521 36.8594 183.078 35.3401 181.021C33.9692 179.165 32.6673 180.527 31.831 182.107C30.52 181.815 29.2694 181.996 28.2859 182.915C21.6907 189.076 14.2936 185.807 14.1889 187.644C14.1587 188.174 14.4426 188.595 14.8005 189.053C17.6802 192.731 23.3333 195.415 30.0494 195.698C35.3204 195.92 37.0809 194.487 37.5218 194.102C37.6767 193.967 38.0238 193.675 38.3997 193.264C38.7016 193.505 38.9954 193.723 39.29 193.923C39.406 197.45 39.6134 200.972 39.921 204.488C39.6709 204.511 39.4318 204.552 39.2537 204.57C36.7005 204.83 35.8402 201.386 31.9833 200.127C30.7024 199.709 28.2348 199.253 26.9344 200.127C26.7471 200.253 26.1082 200.726 25.1168 201.137C24.5308 201.38 24.0831 201.492 23.9051 201.541C22.3226 201.974 20.857 203.161 19.8661 203.964C18.0033 205.474 17.072 206.228 16.6347 207.599C16.4972 208.031 16.1101 209.245 16.6347 210.427C16.8826 210.985 17.458 211.816 19.6641 212.648C20.9752 213.143 24.7995 214.585 29.3579 213.052C30.3959 212.703 29.6035 212.828 33.5989 210.831C36.7423 209.259 38.5807 208.508 38.8498 206.994C38.9444 206.461 38.849 205.812 39.2537 205.58C39.4786 205.451 39.7505 205.514 40.0219 205.611C40.2864 208.438 40.6167 211.26 41.017 214.077H37.4201C32.644 214.077 28.3593 216.735 26.2385 221.015L12.7843 248.158C11.9349 249.871 11.4858 251.787 11.4858 253.7V323.495C11.4858 330.376 17.0844 335.975 23.966 335.975H55.37C62.2515 335.975 67.85 330.376 67.85 323.495V259.227C67.85 257.66 67.5598 256.126 66.9873 254.668L54.1648 221.998C52.6096 218.035 49.2413 215.233 45.2149 214.365C46.5064 212.834 47.7998 211.304 49.1035 209.779C50.7448 210.571 52.5504 211.221 54.4918 211.678C59.6276 212.885 61.6256 211.809 62.1311 211.513C62.6138 211.23 64.7061 210.082 65.0608 208.167C65.0988 207.962 65.1135 207.755 65.1108 207.546C70.3715 211.822 73.1157 213.93 75.1208 213.227C76.8445 212.623 77.8286 210.643 78.3921 208.866C78.9806 208.947 79.6047 209.031 80.2698 209.12C87.4749 210.082 91.1057 210.528 92.4946 208.822C94.4167 206.46 92.5923 201.906 92.0894 200.651C90.9965 197.922 89.3152 196.263 88.2707 195.253C86.9145 193.941 83.049 190.204 76.9635 189.705C75.6406 189.597 74.4521 189.68 73.2414 189.934C72.8196 189.548 72.3744 189.17 71.8841 188.811C70.95 188.126 70.0275 187.619 69.0346 187.223C70.5577 185.555 72.085 183.891 73.6195 182.235C73.8624 182.345 74.093 182.452 74.3049 182.55C79.3319 184.885 80.4364 187.171 85.2707 188.375C87.464 188.921 89.9471 189.539 90.5617 188.61C91.6537 186.959 87.0184 180.165 79.8555 175.568C80.3385 175.057 80.8227 174.547 81.3067 174.037C81.9618 174.312 82.5389 174.58 83.0306 174.808C88.0576 177.143 89.162 179.429 93.9965 180.633C96.1896 181.179 98.6726 181.797 99.2874 180.868C100.262 179.394 96.6765 173.825 90.8049 169.377C92.4177 168.865 94.5564 168.297 97.3258 168.37C101.526 168.48 104.808 170.004 106.756 170.909C111.783 173.244 112.887 175.53 117.721 176.734C119.915 177.28 122.398 177.898 123.012 176.969C124.636 174.514 113.609 160.685 100.419 159.623C99.3957 159.541 98.4753 159.548 97.6434 159.609C97.5284 159.419 97.4036 159.223 97.2721 159.024C101.735 159.168 110.45 157.892 117.869 163.1C120.008 164.602 124.163 168.134 131.117 171.037C133.34 171.964 134.457 172.42 134.765 172.039C135.867 170.676 126.705 159.454 113.815 153.926C108.705 151.734 105.547 151.527 103.301 151.859C103.647 151.464 103.985 151.057 104.309 150.648C109.328 145.725 114.411 140.854 119.539 136.048C119.291 136.816 119.299 137.224 119.57 137.522V137.522ZM55.159 198.791C49.4899 196.955 42.6252 197.941 40.8351 200.03C40.5828 198.179 40.3634 196.325 40.1827 194.469C42.7655 195.911 45.4604 196.297 50.5726 196.98C52.75 197.271 54.5958 197.513 56.1571 197.664C56.3668 198.232 56.5904 198.744 56.85 199.233C56.88 199.29 56.9123 199.344 56.943 199.4L56.8977 199.452C56.3156 199.199 55.7323 198.976 55.159 198.791H55.159ZM40.0968 173.927C40.2585 173.391 40.2619 172.819 40.1384 172.23C40.3148 170.097 40.535 167.97 40.7955 165.849C40.7889 166.174 40.8918 166.499 41.0321 166.851C42.6081 170.809 46.8666 174.609 52.6714 176.579C53.7542 176.947 54.6831 177.179 55.4833 177.321C55.1312 177.934 54.8615 178.532 54.6828 179.085C52.7038 177.495 50.1565 176.339 47.2662 177.565C46.4796 177.899 46.0128 179.12 45.6073 180.58C42.9372 180.626 40.706 181.183 39.6433 182.126C39.649 181.733 39.647 181.34 39.6576 180.947C39.7174 178.703 39.828 176.466 39.9839 174.236C40.0265 174.136 40.0648 174.033 40.0969 173.927H40.0968ZM39.6509 185.47C39.7659 185.705 39.892 185.94 40.0229 186.174C39.9041 186.086 39.7825 185.992 39.6577 185.89C39.6543 185.75 39.6535 185.61 39.6509 185.47ZM44.2097 214.192C43.8989 214.152 43.5851 214.122 43.2684 214.104C42.5376 210.476 41.8626 206.849 41.2978 203.216C42.7833 205.574 45.2078 207.732 48.2961 209.369C46.9257 210.973 45.5667 212.582 44.2097 214.192H44.2097ZM68.1373 186.902C66.204 186.281 63.9353 185.984 60.7955 185.619C59.9998 184.513 59.1796 183.699 58.5733 183.113C58.2449 182.795 57.7408 182.165 57.0876 181.428C58.7801 180.885 61.3059 179.917 64.8751 180.011C68.119 180.096 70.8111 181.024 72.7676 181.859C71.2178 183.534 69.6757 185.215 68.1373 186.902V186.902ZM79.0941 175.093C77.1943 173.945 75.134 172.962 72.9651 172.271C73.1759 172.27 73.3822 172.263 73.6008 172.269C76.2905 172.34 78.6007 172.99 80.4277 173.686C79.9831 174.155 79.5379 174.623 79.0941 175.093V175.093Z" fill="#D7D7D7"/>
</g>
<defs>
<clipPath id="clip0_137_124">
<rect width="433.47" height="345.448" fill="white" transform="translate(0 0.628418)"/>
</clipPath>
</defs>
</svg>
